<mxfile host="app.diagrams.net" modified="2021-06-04T00:25:48.391Z" agent="5.0 (Windows NT 10.0; Win64; x64) AppleWebKit/537.36 (KHTML, like Gecko) Chrome/90.0.4430.212 Safari/537.36" etag="Y4BBJi0ed-vh2mNaw3Cq" version="14.7.4" type="github">
  <diagram id="j_rAEA356DCWH3IthATx" name="Page-1">
    <mxGraphModel dx="1550" dy="375" grid="1" gridSize="5" guides="1" tooltips="1" connect="1" arrows="1" fold="1" page="1" pageScale="1" pageWidth="827" pageHeight="1169" math="0" shadow="0">
      <root>
        <mxCell id="0" />
        <mxCell id="1" parent="0" />
        <mxCell id="76fSZlYYgDRqDkVZBXma-1" value="Slave 1" style="rounded=1;whiteSpace=wrap;html=1;sketch=0;fontColor=#46495D;strokeColor=#788AA3;fillColor=#B2C9AB;" vertex="1" parent="1">
          <mxGeometry x="217" y="161" width="120" height="60" as="geometry" />
        </mxCell>
        <mxCell id="76fSZlYYgDRqDkVZBXma-2" value="Slave6" style="rounded=1;whiteSpace=wrap;html=1;sketch=0;fontColor=#46495D;strokeColor=#788AA3;fillColor=#B2C9AB;" vertex="1" parent="1">
          <mxGeometry x="463" y="161" width="120" height="60" as="geometry" />
        </mxCell>
        <mxCell id="76fSZlYYgDRqDkVZBXma-19" style="edgeStyle=orthogonalEdgeStyle;curved=0;rounded=1;sketch=0;orthogonalLoop=1;jettySize=auto;html=1;exitX=-0.007;exitY=0.307;exitDx=0;exitDy=0;entryX=1;entryY=0.5;entryDx=0;entryDy=0;fontColor=#46495D;strokeColor=#788AA3;fillColor=#B2C9AB;exitPerimeter=0;" edge="1" parent="1" source="76fSZlYYgDRqDkVZBXma-5" target="76fSZlYYgDRqDkVZBXma-17">
          <mxGeometry relative="1" as="geometry" />
        </mxCell>
        <mxCell id="76fSZlYYgDRqDkVZBXma-20" style="edgeStyle=orthogonalEdgeStyle;curved=0;rounded=1;sketch=0;orthogonalLoop=1;jettySize=auto;html=1;exitX=0.001;exitY=0.679;exitDx=0;exitDy=0;entryX=1.018;entryY=0.586;entryDx=0;entryDy=0;entryPerimeter=0;fontColor=#46495D;strokeColor=#788AA3;fillColor=#B2C9AB;exitPerimeter=0;" edge="1" parent="1" source="76fSZlYYgDRqDkVZBXma-5" target="76fSZlYYgDRqDkVZBXma-18">
          <mxGeometry relative="1" as="geometry" />
        </mxCell>
        <mxCell id="76fSZlYYgDRqDkVZBXma-5" value="&lt;font style=&quot;font-size: 24px&quot;&gt;Master&lt;/font&gt;" style="rounded=1;whiteSpace=wrap;html=1;sketch=0;fontColor=#46495D;strokeColor=#788AA3;fillColor=#B2C9AB;" vertex="1" parent="1">
          <mxGeometry x="179" y="287" width="196" height="106" as="geometry" />
        </mxCell>
        <mxCell id="76fSZlYYgDRqDkVZBXma-7" value="//" style="endArrow=classic;startArrow=classic;html=1;fontColor=#46495D;strokeColor=#788AA3;fillColor=#B2C9AB;entryX=0;entryY=0.5;entryDx=0;entryDy=0;exitX=1;exitY=0.5;exitDx=0;exitDy=0;" edge="1" parent="1" source="76fSZlYYgDRqDkVZBXma-1" target="76fSZlYYgDRqDkVZBXma-2">
          <mxGeometry width="50" height="50" relative="1" as="geometry">
            <mxPoint x="372" y="247" as="sourcePoint" />
            <mxPoint x="422" y="197" as="targetPoint" />
          </mxGeometry>
        </mxCell>
        <mxCell id="76fSZlYYgDRqDkVZBXma-8" value="Individual&amp;nbsp;&lt;br&gt;Cell Info" style="endArrow=classic;startArrow=classic;html=1;fontColor=#46495D;strokeColor=#788AA3;fillColor=#B2C9AB;exitX=0.5;exitY=1;exitDx=0;exitDy=0;entryX=0.5;entryY=0;entryDx=0;entryDy=0;" edge="1" parent="1" source="76fSZlYYgDRqDkVZBXma-1" target="76fSZlYYgDRqDkVZBXma-5">
          <mxGeometry width="50" height="50" relative="1" as="geometry">
            <mxPoint x="312" y="265" as="sourcePoint" />
            <mxPoint x="401" y="305" as="targetPoint" />
          </mxGeometry>
        </mxCell>
        <mxCell id="76fSZlYYgDRqDkVZBXma-10" value="Individual &lt;br&gt;Cell Info&amp;nbsp;" style="text;html=1;align=center;verticalAlign=middle;resizable=0;points=[];autosize=1;strokeColor=none;fontColor=#46495D;" vertex="1" parent="1">
          <mxGeometry x="371.5" y="157" width="62" height="33" as="geometry" />
        </mxCell>
        <mxCell id="76fSZlYYgDRqDkVZBXma-11" value="Slave 2,3,4,5" style="text;html=1;align=center;verticalAlign=middle;resizable=0;points=[];autosize=1;strokeColor=none;fontColor=#46495D;" vertex="1" parent="1">
          <mxGeometry x="360" y="195" width="81" height="19" as="geometry" />
        </mxCell>
        <mxCell id="76fSZlYYgDRqDkVZBXma-13" value="" style="rounded=0;whiteSpace=wrap;html=1;sketch=0;fontColor=#333333;strokeColor=#666666;fillColor=#f5f5f5;" vertex="1" parent="1">
          <mxGeometry x="421" y="280" width="139" height="120" as="geometry" />
        </mxCell>
        <mxCell id="76fSZlYYgDRqDkVZBXma-14" value="" style="endArrow=none;html=1;fontColor=#46495D;strokeColor=#788AA3;fillColor=#B2C9AB;exitX=1;exitY=0;exitDx=0;exitDy=0;entryX=0;entryY=0;entryDx=0;entryDy=0;" edge="1" parent="1" source="76fSZlYYgDRqDkVZBXma-5" target="76fSZlYYgDRqDkVZBXma-13">
          <mxGeometry width="50" height="50" relative="1" as="geometry">
            <mxPoint x="380" y="290" as="sourcePoint" />
            <mxPoint x="420" y="300" as="targetPoint" />
          </mxGeometry>
        </mxCell>
        <mxCell id="76fSZlYYgDRqDkVZBXma-15" value="" style="endArrow=none;html=1;fontColor=#46495D;strokeColor=#788AA3;fillColor=#B2C9AB;entryX=0;entryY=1;entryDx=0;entryDy=0;exitX=1;exitY=1;exitDx=0;exitDy=0;" edge="1" parent="1" source="76fSZlYYgDRqDkVZBXma-5" target="76fSZlYYgDRqDkVZBXma-13">
          <mxGeometry width="50" height="50" relative="1" as="geometry">
            <mxPoint x="380" y="410" as="sourcePoint" />
            <mxPoint x="417.5" y="385" as="targetPoint" />
          </mxGeometry>
        </mxCell>
        <mxCell id="76fSZlYYgDRqDkVZBXma-16" value="&lt;h1&gt;&lt;font style=&quot;font-size: 18px&quot;&gt;Check&lt;/font&gt;&lt;/h1&gt;&lt;p&gt;&lt;/p&gt;&lt;ul&gt;&lt;li&gt;Temperature.&lt;/li&gt;&lt;li&gt;Current.&lt;/li&gt;&lt;li&gt;Cell Voltage.&lt;/li&gt;&lt;li&gt;Pack Voltage.&amp;nbsp;&lt;/li&gt;&lt;/ul&gt;&lt;p&gt;&lt;/p&gt;" style="text;html=1;strokeColor=none;fillColor=none;spacing=5;spacingTop=-20;whiteSpace=wrap;overflow=hidden;rounded=0;sketch=0;fontColor=#46495D;" vertex="1" parent="1">
          <mxGeometry x="421" y="280" width="140" height="120" as="geometry" />
        </mxCell>
        <mxCell id="76fSZlYYgDRqDkVZBXma-17" value="Main Charging Contactor" style="rounded=1;whiteSpace=wrap;html=1;sketch=0;fontColor=#46495D;strokeColor=#788AA3;fillColor=#B2C9AB;" vertex="1" parent="1">
          <mxGeometry x="-60" y="255" width="120" height="55" as="geometry" />
        </mxCell>
        <mxCell id="76fSZlYYgDRqDkVZBXma-18" value="Main Discharging&lt;br&gt;Contactor" style="rounded=1;whiteSpace=wrap;html=1;sketch=0;fontColor=#46495D;strokeColor=#788AA3;fillColor=#B2C9AB;" vertex="1" parent="1">
          <mxGeometry x="-60" y="365" width="120" height="60" as="geometry" />
        </mxCell>
      </root>
    </mxGraphModel>
  </diagram>
</mxfile>
